<svg xmlns="http://www.w3.org/2000/svg" version="1.1" xmlns:xlink="http://www.w3.org/1999/xlink" xmlns:svgjs="http://svgjs.dev/svgjs" width="1440" height="560" preserveAspectRatio="none" viewBox="0 0 1440 560"><g mask="url(&quot;#SvgjsMask1009&quot;)" fill="none"><rect width="1440" height="560" x="0" y="0" fill="rgba(255, 255, 255, 1)"></rect><rect width="105" height="105" clip-path="url(&quot;#SvgjsClipPath1010&quot;)" x="763.29" y="55.61" fill="url(&quot;#SvgjsPattern1011&quot;)" transform="rotate(40.13, 815.79, 108.11)"></rect><rect width="84" height="84" clip-path="url(&quot;#SvgjsClipPath1012&quot;)" x="412.4" y="180.26" fill="url(&quot;#SvgjsPattern1013&quot;)" transform="rotate(197.51, 454.4, 222.26)"></rect><rect width="287.04" height="287.04" clip-path="url(&quot;#SvgjsClipPath1014&quot;)" x="1185.06" y="196.25" fill="url(&quot;#SvgjsPattern1015&quot;)" transform="rotate(132.61, 1328.58, 339.77)"></rect><rect width="251.20000000000002" height="251.20000000000002" clip-path="url(&quot;#SvgjsClipPath1016&quot;)" x="1267.71" y="-5.73" fill="url(&quot;#SvgjsPattern1017&quot;)" transform="rotate(73.57, 1393.31, 119.87)"></rect><path d="M191.33999999999997 306.34000000000003 L181.98 284.02L196.1552694115841 285.68473058841585z" fill="rgba(11, 3, 252, 1)"></path><circle r="59.29651466026362" cx="142.06" cy="118.67" stroke="rgba(11, 3, 252, 1)" stroke-width="2.41" stroke-dasharray="2, 2"></circle><rect width="278" height="278" clip-path="url(&quot;#SvgjsClipPath1018&quot;)" x="199.59" y="-4.23" fill="url(&quot;#SvgjsPattern1019&quot;)" transform="rotate(105.06, 338.59, 134.77)"></rect><path d="M834.25 62.71a5.6 5.6 0 1 0-9.55-5.86 5.6 5.6 0 1 0 9.55 5.86zM820.61 54.34a5.6 5.6 0 1 0-9.54-5.87 5.6 5.6 0 1 0 9.54 5.87zM806.98 45.96a5.6 5.6 0 1 0-9.55-5.86 5.6 5.6 0 1 0 9.55 5.86zM793.34 37.59a5.6 5.6 0 1 0-9.54-5.86 5.6 5.6 0 1 0 9.54 5.86zM869.89 65.82a5.6 5.6 0 1 0-9.55-5.86 5.6 5.6 0 1 0 9.55 5.86zM856.25 57.44a5.6 5.6 0 1 0-9.54-5.86 5.6 5.6 0 1 0 9.54 5.86zM842.62 49.07a5.6 5.6 0 1 0-9.55-5.86 5.6 5.6 0 1 0 9.55 5.86zM828.98 40.7a5.6 5.6 0 1 0-9.54-5.86 5.6 5.6 0 1 0 9.54 5.86zM905.53 68.92a5.6 5.6 0 1 0-9.54-5.86 5.6 5.6 0 1 0 9.54 5.86zM891.9 60.55a5.6 5.6 0 1 0-9.55-5.86 5.6 5.6 0 1 0 9.55 5.86zM878.26 52.18a5.6 5.6 0 1 0-9.54-5.86 5.6 5.6 0 1 0 9.54 5.86zM864.63 43.81a5.6 5.6 0 1 0-9.55-5.86 5.6 5.6 0 1 0 9.55 5.86z" fill="rgba(11, 3, 252, 1)"></path><path d="M456.62 341.88L466.17 350.4 459.95 361.6 469.5 370.13 463.28 381.32 472.83 389.85 466.61 401.04M448.73 343.21L458.28 351.74 452.06 362.93 461.61 371.46 455.39 382.65 464.95 391.18 458.72 402.37" stroke="rgba(11, 3, 252, 1)" stroke-width="1.19" stroke-dasharray="2, 2"></path><circle r="46.666666666666664" cx="324.36" cy="387.92" stroke="rgba(11, 3, 252, 1)" stroke-width="2.39" stroke-dasharray="3, 2"></circle><rect width="106.4" height="106.4" clip-path="url(&quot;#SvgjsClipPath1020&quot;)" x="1203.43" y="505.94" fill="url(&quot;#SvgjsPattern1021&quot;)" transform="rotate(19.52, 1256.63, 559.14)"></rect><path d="M1307.58 111.72a5.6 5.6 0 1 0 0.19-11.2 5.6 5.6 0 1 0-0.19 11.2zM1307.84 95.72a5.6 5.6 0 1 0 0.18-11.19 5.6 5.6 0 1 0-0.18 11.19zM1308.1 79.73a5.6 5.6 0 1 0 0.18-11.2 5.6 5.6 0 1 0-0.18 11.2zM1308.36 63.73a5.6 5.6 0 1 0 0.18-11.2 5.6 5.6 0 1 0-0.18 11.2zM1323.06 143.98a5.6 5.6 0 1 0 0.18-11.2 5.6 5.6 0 1 0-0.18 11.2zM1323.32 127.98a5.6 5.6 0 1 0 0.18-11.2 5.6 5.6 0 1 0-0.18 11.2zM1323.58 111.98a5.6 5.6 0 1 0 0.18-11.2 5.6 5.6 0 1 0-0.18 11.2zM1323.84 95.98a5.6 5.6 0 1 0 0.18-11.19 5.6 5.6 0 1 0-0.18 11.19z" stroke="rgba(11, 3, 252, 1)" stroke-width="2.4" stroke-dasharray="4, 4"></path></g><defs><mask id="SvgjsMask1009"><rect width="1440" height="560" fill="#ffffff"></rect></mask><pattern x="0" y="0" width="10.5" height="10.5" patternUnits="userSpaceOnUse" id="SvgjsPattern1011"><path d="M0 10.5L5.25 0L10.5 10.5" stroke="rgba(11, 3, 252, 1)" fill="none"></path></pattern><clipPath id="SvgjsClipPath1010"><circle r="26.25" cx="815.79" cy="108.11"></circle></clipPath><pattern x="0" y="0" width="6" height="6" patternUnits="userSpaceOnUse" id="SvgjsPattern1013"><path d="M3 1L3 5M1 3L5 3" stroke="rgba(11, 3, 252, 1)" fill="none" stroke-width="1"></path></pattern><clipPath id="SvgjsClipPath1012"><circle r="21" cx="454.4" cy="222.26"></circle></clipPath><pattern x="0" y="0" width="11.96" height="11.96" patternUnits="userSpaceOnUse" id="SvgjsPattern1015"><path d="M5.98 1L5.98 10.96M1 5.98L10.96 5.98" stroke="rgba(11, 3, 252, 1)" fill="none" stroke-width="1.98"></path></pattern><clipPath id="SvgjsClipPath1014"><circle r="71.76" cx="1328.58" cy="339.77"></circle></clipPath><pattern x="0" y="0" width="6.28" height="6.28" patternUnits="userSpaceOnUse" id="SvgjsPattern1017"><path d="M0 6.28L3.14 0L6.28 6.28" stroke="rgba(11, 3, 252, 1)" fill="none"></path></pattern><clipPath id="SvgjsClipPath1016"><circle r="62.800000000000004" cx="1393.31" cy="119.87"></circle></clipPath><pattern x="0" y="0" width="278" height="13.9" patternUnits="userSpaceOnUse" id="SvgjsPattern1019"><rect width="278" height="6.95" x="0" y="0" fill="rgba(11, 3, 252, 1)"></rect><rect width="278" height="6.95" x="0" y="6.95" fill="rgba(0, 0, 0, 0)"></rect></pattern><clipPath id="SvgjsClipPath1018"><circle r="69.5" cx="338.59" cy="134.77"></circle></clipPath><pattern x="0" y="0" width="106.4" height="7.6" patternUnits="userSpaceOnUse" id="SvgjsPattern1021"><rect width="106.4" height="3.8" x="0" y="0" fill="rgba(11, 3, 252, 1)"></rect><rect width="106.4" height="3.8" x="0" y="3.8" fill="rgba(0, 0, 0, 0)"></rect></pattern><clipPath id="SvgjsClipPath1020"><circle r="26.6" cx="1256.63" cy="559.14"></circle></clipPath></defs></svg>