<svg data-v-fde0c5aa="" xmlns="http://www.w3.org/2000/svg" viewBox="0 0 300 300" class="iconLeftSlogan"><!----><defs data-v-fde0c5aa=""><!----></defs><rect data-v-fde0c5aa="" fill="transparent" x="0" y="0" width="300px" height="300px" class="logo-background-square"></rect><defs data-v-fde0c5aa=""><!----></defs><g data-v-fde0c5aa="" id="8aad9802-6972-4d13-aa49-4d09c6542bf0" fill="#0b03fc" transform="matrix(2.407280786267886,0,0,2.407280786267886,104.77852423763291,119.94735180798992)"><path d="M1.12 13.51L1.12 3.71L4.35 3.71L4.35 3.71Q5.92 3.71 6.80 4.47L6.80 4.47L6.80 4.47Q7.67 5.24 7.67 6.89L7.67 6.89L7.67 6.89Q7.67 8.51 6.79 9.30L6.79 9.30L6.79 9.30Q5.91 10.08 4.35 10.08L4.35 10.08L2.52 10.08L2.52 13.51L1.12 13.51ZM2.52 8.89L4.16 8.89L4.16 8.89Q5.24 8.89 5.77 8.40L5.77 8.40L5.77 8.40Q6.30 7.91 6.30 6.90L6.30 6.90L6.30 6.90Q6.30 5.88 5.79 5.39L5.79 5.39L5.79 5.39Q5.28 4.90 4.16 4.90L4.16 4.90L2.52 4.90L2.52 8.89ZM10.46 13.65L10.46 13.65Q9.51 13.65 8.93 13.09L8.93 13.09L8.93 13.09Q8.34 12.53 8.34 11.66L8.34 11.66L8.34 11.66Q8.34 10.36 9.58 9.80L9.58 9.80L9.58 9.80Q10.81 9.24 12.45 9.21L12.45 9.21L12.45 9.21Q12.45 8.29 12.09 7.96L12.09 7.96L12.09 7.96Q11.73 7.63 10.95 7.63L10.95 7.63L10.95 7.63Q10.51 7.63 10.08 7.76L10.08 7.76L10.08 7.76Q9.65 7.90 9.14 8.25L9.14 8.25L8.96 7.22L8.96 7.22Q9.38 6.90 10.00 6.71L10.00 6.71L10.00 6.71Q10.61 6.51 11.28 6.51L11.28 6.51L11.28 6.51Q12.17 6.51 12.69 6.82L12.69 6.82L12.69 6.82Q13.22 7.13 13.46 7.84L13.46 7.84L13.46 7.84Q13.71 8.55 13.71 9.80L13.71 9.80L13.71 11.20L13.71 11.20Q13.71 11.76 13.76 12.05L13.76 12.05L13.76 12.05Q13.80 12.33 13.97 12.49L13.97 12.49L13.97 12.49Q14.14 12.64 14.49 12.64L14.49 12.64L14.62 12.64L14.42 13.65L14.32 13.65L14.32 13.65Q13.73 13.65 13.40 13.54L13.40 13.54L13.40 13.54Q13.06 13.43 12.89 13.22L12.89 13.22L12.89 13.22Q12.71 13.01 12.56 12.64L12.56 12.64L12.56 12.64Q11.69 13.65 10.46 13.65L10.46 13.65ZM10.70 12.64L10.70 12.64Q11.20 12.64 11.67 12.39L11.67 12.39L11.67 12.39Q12.14 12.14 12.45 11.72L12.45 11.72L12.45 10.08L12.45 10.08Q10.93 10.14 10.28 10.48L10.28 10.48L10.28 10.48Q9.63 10.82 9.63 11.59L9.63 11.59L9.63 11.59Q9.63 12.12 9.92 12.38L9.92 12.38L9.92 12.38Q10.21 12.64 10.70 12.64L10.70 12.64ZM17.95 13.65L17.95 13.65Q17.04 13.65 16.60 13.17L16.60 13.17L16.60 13.17Q16.16 12.70 16.16 12.01L16.16 12.01L16.16 7.63L14.98 7.63L15.09 6.65L16.16 6.65L16.16 4.96L17.42 4.83L17.42 6.65L19.22 6.65L19.22 7.63L17.42 7.63L17.42 11.24L17.42 11.24Q17.42 11.96 17.50 12.22L17.50 12.22L17.50 12.22Q17.58 12.49 17.86 12.56L17.86 12.56L17.86 12.56Q18.13 12.64 18.86 12.64L18.86 12.64L19.18 12.64L19.08 13.65L17.95 13.65ZM23.58 6.51L23.58 6.51Q24.88 6.51 25.56 7.36L25.56 7.36L25.56 7.36Q26.25 8.22 26.25 9.69L26.25 9.69L26.25 13.51L24.99 13.51L24.99 9.84L24.99 9.84Q24.99 8.71 24.58 8.17L24.58 8.17L24.58 8.17Q24.16 7.63 23.30 7.63L23.30 7.63L23.30 7.63Q22.76 7.63 22.32 7.88L22.32 7.88L22.32 7.88Q21.87 8.12 21.56 8.57L21.56 8.57L21.56 13.51L20.29 13.51L20.29 3.01L21.56 3.01L21.56 7.31L21.56 7.31Q21.97 6.92 22.45 6.71L22.45 6.71L22.45 6.71Q22.93 6.51 23.58 6.51L23.58 6.51ZM28.15 13.51L28.15 3.71L34.13 3.71L34.13 4.91L29.48 4.91L29.48 7.78L33.07 7.78L33.07 8.99L29.48 8.99L29.48 13.51L28.15 13.51ZM35.21 5.11L35.21 3.71L36.47 3.71L36.47 5.11L35.21 5.11ZM35.21 13.51L35.21 6.65L36.47 6.65L36.47 13.51L35.21 13.51ZM41.57 6.51L41.57 6.51Q44.37 6.51 44.37 9.73L44.37 9.73L44.37 13.51L43.11 13.51L43.11 9.73L43.11 9.73Q43.11 8.62 42.69 8.13L42.69 8.13L42.69 8.13Q42.28 7.63 41.31 7.63L41.31 7.63L41.31 7.63Q40.70 7.63 40.19 7.85L40.19 7.85L40.19 7.85Q39.69 8.08 39.44 8.53L39.44 8.53L39.44 13.51L38.18 13.51L38.18 6.65L39.16 6.65L39.30 7.38L39.30 7.38Q39.84 6.89 40.40 6.70L40.40 6.70L40.40 6.70Q40.95 6.51 41.57 6.51L41.57 6.51ZM50.82 3.01L52.08 3.01L52.08 13.51L50.96 13.51L50.82 12.67L50.82 12.67Q50.47 13.15 49.91 13.40L49.91 13.40L49.91 13.40Q49.35 13.65 48.72 13.65L48.72 13.65L48.72 13.65Q47.85 13.65 47.14 13.17L47.14 13.17L47.14 13.17Q46.42 12.70 46.01 11.89L46.01 11.89L46.01 11.89Q45.60 11.07 45.60 10.09L45.60 10.09L45.60 10.09Q45.60 9.14 45.98 8.32L45.98 8.32L45.98 8.32Q46.37 7.49 47.08 7L47.08 7L47.08 7Q47.80 6.51 48.72 6.51L48.72 6.51L48.72 6.51Q49.34 6.51 49.88 6.73L49.88 6.73L49.88 6.73Q50.43 6.96 50.82 7.42L50.82 7.42L50.82 3.01ZM48.94 12.53L48.94 12.53Q49.45 12.53 49.91 12.27L49.91 12.27L49.91 12.27Q50.37 12.01 50.67 11.47L50.67 11.47L50.67 11.47Q50.96 10.92 50.96 10.09L50.96 10.09L50.96 10.09Q50.96 9.32 50.67 8.76L50.67 8.76L50.67 8.76Q50.37 8.20 49.90 7.92L49.90 7.92L49.90 7.92Q49.43 7.63 48.94 7.63L48.94 7.63L48.94 7.63Q47.99 7.63 47.44 8.32L47.44 8.32L47.44 8.32Q46.89 9.02 46.89 10.09L46.89 10.09L46.89 10.09Q46.89 11.13 47.45 11.83L47.45 11.83L47.45 11.83Q48.01 12.53 48.94 12.53L48.94 12.53ZM57.06 13.65L57.06 13.65Q55.89 13.65 55.05 13.17L55.05 13.17L55.05 13.17Q54.22 12.68 53.79 11.86L53.79 11.86L53.79 11.86Q53.35 11.03 53.35 10.02L53.35 10.02L53.35 10.02Q53.35 9.06 53.75 8.25L53.75 8.25L53.75 8.25Q54.15 7.45 54.91 6.98L54.91 6.98L54.91 6.98Q55.68 6.51 56.71 6.51L56.71 6.51L56.71 6.51Q58.03 6.51 58.85 7.28L58.85 7.28L58.85 7.28Q59.67 8.05 59.67 9.41L59.67 9.41L59.67 9.41Q59.67 9.76 59.61 10.08L59.61 10.08L54.64 10.08L54.64 10.08Q54.77 11.41 55.45 11.97L55.45 11.97L55.45 11.97Q56.14 12.53 57.22 12.53L57.22 12.53L57.22 12.53Q58.30 12.53 59.19 12.12L59.19 12.12L59.36 13.12L59.36 13.12Q58.17 13.65 57.06 13.65L57.06 13.65ZM54.75 9.21L58.37 9.21L58.37 9.21Q58.37 8.47 57.95 8.05L57.95 8.05L57.95 8.05Q57.53 7.63 56.69 7.63L56.69 7.63L56.69 7.63Q55.87 7.63 55.41 8.03L55.41 8.03L55.41 8.03Q54.95 8.43 54.75 9.21L54.75 9.21ZM60.94 13.51L60.94 6.65L61.98 6.65L62.13 7.78L62.13 7.78Q62.66 7.13 63.15 6.82L63.15 6.82L63.15 6.82Q63.63 6.51 64.16 6.51L64.16 6.51L64.16 6.51Q64.33 6.51 64.48 6.55L64.48 6.55L64.36 7.94L64.36 7.94Q64.18 7.90 63.94 7.90L63.94 7.90L63.94 7.90Q63.42 7.90 62.96 8.13L62.96 8.13L62.96 8.13Q62.50 8.36 62.29 8.67L62.29 8.67L62.29 13.51L60.94 13.51Z"></path></g><defs data-v-fde0c5aa=""><!----></defs><g data-v-fde0c5aa="" id="7e103fd3-e449-4e10-9425-b8be07639888" stroke="none" fill="#0b03fc" transform="matrix(1.4924569514994999,0,0,1.4924569514994999,29.925915577378376,112.6885762125125)"><switch><g><path d="M20.75 19.75v-12c0-.55-.45-1-1-1h-12c-.55 0-1 .45-1 1v12c0 .55.45 1 1 1h12c.55 0 1-.45 1-1zm-2-1h-10v-10h10v10zM42.25 29.25h-12c-.55 0-1 .45-1 1v12c0 .55.45 1 1 1h12c.55 0 1-.45 1-1v-12c0-.55-.45-1-1-1zm-1 12h-10v-10h10v10z"></path><path d="M24.75 35.75h-10v-10h21c.55 0 1-.45 1-1v-11c0-.55-.45-1-1-1h-11c-.55 0-1 .45-1 1s.45 1 1 1h10v9h-21c-.55 0-1 .45-1 1v12c0 .55.45 1 1 1h11c.55 0 1-.45 1-1s-.45-1-1-1z"></path></g></switch></g><defs data-v-fde0c5aa=""><!----></defs><g data-v-fde0c5aa="" id="bdbf963a-a08b-48c1-9436-79414a5f12a4" fill="#0b03fc" transform="matrix(0.472229251313917,0,0,0.472229251313917,107.31412078259619,161.01698420383573)"><path d="M9.02 3.92L8.30 3.92L6.94 3.92L6.94 4.19C6.94 4.34 7.04 4.42 7.22 4.44L7.39 4.44C7.49 4.44 7.63 4.45 7.80 4.45C7.97 4.45 8.13 4.47 8.30 4.47L8.30 10.04C8.30 10.50 8.23 10.92 8.09 11.33C7.95 11.73 7.76 12.08 7.49 12.38C7.22 12.67 6.92 12.89 6.54 13.06C6.16 13.23 5.74 13.31 5.26 13.31C4.79 13.31 4.35 13.23 3.98 13.06C3.60 12.89 3.28 12.66 3.02 12.36C2.76 12.07 2.58 11.72 2.44 11.33C2.30 10.93 2.23 10.50 2.23 10.04L2.23 4.47C2.39 4.47 2.56 4.45 2.73 4.45C2.90 4.45 3.04 4.44 3.14 4.44L3.30 4.44C3.49 4.42 3.58 4.34 3.58 4.19L3.58 3.92L2.23 3.92L1.51 3.92L0.34 3.92L0.34 4.19C0.34 4.34 0.42 4.42 0.60 4.44L0.74 4.44C0.81 4.44 0.91 4.45 1.05 4.45C1.19 4.45 1.34 4.47 1.51 4.47L1.51 10.04C1.51 10.58 1.60 11.09 1.76 11.56C1.93 12.04 2.18 12.46 2.51 12.81C2.83 13.16 3.23 13.44 3.70 13.64C4.16 13.83 4.69 13.93 5.26 13.93C5.84 13.93 6.36 13.83 6.82 13.64C7.28 13.44 7.69 13.16 8.01 12.81C8.33 12.46 8.58 12.04 8.75 11.56C8.92 11.09 9.02 10.58 9.02 10.04L9.02 4.47C9.18 4.47 9.32 4.45 9.46 4.45C9.60 4.45 9.72 4.44 9.79 4.44L9.91 4.44C10.09 4.42 10.19 4.34 10.19 4.19L10.19 3.92ZM27.05 3.92L26.42 3.92L25.20 3.92L25.20 4.19C25.20 4.34 25.30 4.42 25.48 4.44L25.62 4.44C25.69 4.44 25.80 4.45 25.94 4.45C26.08 4.45 26.25 4.47 26.42 4.47L26.42 12.22C26.42 12.35 26.42 12.49 26.43 12.63L20.02 4.05C19.98 3.99 19.95 3.95 19.91 3.93C19.87 3.92 19.82 3.91 19.75 3.91L19.40 3.91L18.21 3.91L18.21 4.19C18.21 4.34 18.31 4.42 18.49 4.44L18.63 4.44C18.70 4.44 18.80 4.45 18.94 4.45C19.08 4.45 19.24 4.47 19.40 4.47L19.40 13.26C19.24 13.26 19.08 13.27 18.94 13.27C18.80 13.27 18.70 13.29 18.63 13.29L18.49 13.29C18.31 13.30 18.21 13.38 18.21 13.54L18.21 13.82L19.40 13.82L20.02 13.82L21.24 13.82L21.24 13.54C21.24 13.38 21.14 13.30 20.96 13.29L20.82 13.29C20.75 13.29 20.62 13.27 20.48 13.27C20.34 13.27 20.19 13.26 20.02 13.26L20.02 5.49C20.02 5.36 20.02 5.22 20.01 5.08L26.45 13.68C26.52 13.78 26.59 13.82 26.70 13.82L27.05 13.82L27.05 4.47C27.22 4.47 27.36 4.45 27.50 4.45C27.64 4.45 27.75 4.44 27.82 4.44L27.94 4.44C28.13 4.42 28.22 4.34 28.22 4.19L28.22 3.92ZM42.63 11.97C42.43 11.97 42.35 12.08 42.34 12.31C42.34 12.32 42.34 12.38 42.32 12.43C42.31 12.49 42.31 12.59 42.29 12.71C42.28 12.84 42.27 13.01 42.25 13.20L38.16 13.20L38.16 4.47C38.33 4.47 38.47 4.45 38.61 4.45C38.75 4.45 38.86 4.44 38.93 4.44L39.06 4.44C39.24 4.42 39.34 4.34 39.34 4.19L39.34 3.92L38.16 3.92L37.45 3.92L36.26 3.92L36.26 4.19C36.26 4.34 36.36 4.42 36.54 4.44L36.68 4.44C36.75 4.44 36.85 4.45 36.99 4.45C37.13 4.45 37.28 4.47 37.45 4.47L37.45 13.26C37.28 13.26 37.13 13.27 36.99 13.27C36.85 13.27 36.75 13.29 36.68 13.29L36.54 13.29C36.36 13.30 36.26 13.38 36.26 13.54L36.26 13.82L37.45 13.82L42.73 13.82L42.85 13.82L42.98 13.82L42.98 13.55L42.98 12.99L42.98 11.97L42.70 11.97ZM60.12 8.86C60.12 8.11 59.99 7.41 59.77 6.79C59.54 6.17 59.22 5.64 58.80 5.19C58.38 4.75 57.89 4.40 57.32 4.16C56.74 3.92 56.08 3.79 55.38 3.79C54.68 3.79 54.05 3.92 53.48 4.16C52.91 4.40 52.40 4.75 51.98 5.19C51.56 5.64 51.24 6.17 51.02 6.79C50.79 7.41 50.67 8.11 50.67 8.86C50.67 9.63 50.79 10.33 51.02 10.95C51.24 11.56 51.56 12.10 51.98 12.54C52.40 12.99 52.91 13.33 53.48 13.57C54.05 13.80 54.68 13.93 55.38 13.93C56.08 13.93 56.74 13.80 57.32 13.57C57.89 13.33 58.38 12.99 58.80 12.54C59.22 12.10 59.54 11.56 59.77 10.95C59.99 10.33 60.12 9.63 60.12 8.86ZM59.36 8.86C59.36 9.56 59.28 10.18 59.08 10.72C58.88 11.27 58.62 11.75 58.27 12.12C57.92 12.50 57.50 12.81 57.01 13.01C56.52 13.20 55.99 13.30 55.38 13.30C54.80 13.30 54.26 13.20 53.77 13.01C53.28 12.81 52.86 12.50 52.51 12.12C52.16 11.75 51.88 11.27 51.69 10.72C51.49 10.18 51.41 9.56 51.41 8.86C51.41 8.18 51.49 7.55 51.69 7.00C51.88 6.45 52.16 5.98 52.51 5.60C52.86 5.22 53.28 4.91 53.77 4.72C54.26 4.52 54.80 4.41 55.38 4.41C55.99 4.41 56.52 4.52 57.01 4.72C57.50 4.91 57.92 5.22 58.27 5.60C58.62 5.98 58.88 6.45 59.08 7.00C59.28 7.55 59.36 8.18 59.36 8.86ZM76.12 12.21C76.09 12.18 76.05 12.15 76.01 12.15C75.98 12.15 75.96 12.15 75.94 12.17C75.92 12.18 75.89 12.21 75.87 12.22C75.67 12.40 75.46 12.56 75.26 12.70C75.07 12.84 74.86 12.94 74.62 13.03C74.38 13.13 74.13 13.20 73.85 13.24C73.57 13.29 73.26 13.31 72.91 13.31C72.35 13.31 71.81 13.22 71.33 13.01C70.84 12.81 70.43 12.52 70.08 12.14C69.73 11.76 69.44 11.28 69.24 10.74C69.05 10.19 68.95 9.56 68.95 8.86C68.95 8.18 69.05 7.56 69.24 7.01C69.45 6.47 69.73 6.01 70.10 5.61C70.46 5.24 70.90 4.94 71.40 4.73C71.90 4.52 72.45 4.42 73.05 4.42C73.95 4.42 74.77 4.56 75.50 4.89C75.54 5.78 75.59 6.30 75.59 6.41C75.60 6.64 75.68 6.75 75.88 6.75L76.22 6.75L76.22 4.51C75.04 4.03 73.98 3.81 73.05 3.81C72.34 3.81 71.69 3.92 71.09 4.17C70.50 4.42 69.97 4.76 69.55 5.21C69.12 5.66 68.80 6.19 68.56 6.80C68.32 7.42 68.21 8.11 68.21 8.86C68.21 9.63 68.33 10.32 68.56 10.95C68.78 11.58 69.10 12.10 69.51 12.54C69.92 12.99 70.41 13.33 70.98 13.57C71.55 13.80 72.17 13.93 72.86 13.93C73.26 13.93 73.64 13.90 73.99 13.83C74.33 13.76 74.65 13.66 74.94 13.54C75.22 13.41 75.49 13.26 75.73 13.09C75.96 12.91 76.19 12.73 76.40 12.50ZM92.90 13.29L92.82 13.29L92.64 13.29C92.55 13.29 92.46 13.27 92.36 13.27L88.33 9.06C88.24 8.96 88.17 8.89 88.09 8.83C88.00 8.78 87.92 8.74 87.82 8.71C87.91 8.68 87.98 8.64 88.05 8.58C88.12 8.53 88.20 8.46 88.28 8.36L92.08 4.45L92.34 4.45C92.43 4.45 92.48 4.44 92.53 4.44L92.61 4.44C92.79 4.42 92.89 4.34 92.89 4.19L92.89 3.91L91.91 3.91L91.78 3.91L89.98 3.91L89.98 4.19C89.98 4.34 90.08 4.42 90.26 4.44L90.43 4.44C90.52 4.44 90.65 4.45 90.82 4.45L91.27 4.45L87.60 8.22C87.54 8.27 87.49 8.33 87.44 8.36C87.40 8.39 87.35 8.40 87.29 8.43C87.23 8.44 87.19 8.47 87.12 8.47C87.05 8.48 86.97 8.48 86.88 8.48L86.30 8.48L86.30 4.45C86.46 4.45 86.62 4.44 86.76 4.44C86.90 4.44 87.00 4.42 87.07 4.42L87.21 4.42C87.39 4.41 87.47 4.33 87.47 4.17L87.47 3.91L86.30 3.91L85.58 3.91L84.41 3.91L84.41 4.17C84.41 4.33 84.50 4.41 84.69 4.42L84.81 4.42C84.88 4.42 84.99 4.44 85.13 4.44C85.27 4.44 85.41 4.45 85.58 4.45L85.58 13.26C85.41 13.26 85.27 13.27 85.13 13.27C84.99 13.27 84.88 13.29 84.81 13.29L84.69 13.29C84.50 13.30 84.41 13.38 84.41 13.54L84.41 13.82L85.58 13.82L86.30 13.82L87.47 13.82L87.47 13.54C87.47 13.38 87.39 13.30 87.21 13.29L87.07 13.29C87.00 13.29 86.90 13.27 86.76 13.27C86.62 13.27 86.46 13.26 86.30 13.26L86.30 9.04L86.94 9.04C87.05 9.04 87.15 9.04 87.22 9.06C87.29 9.07 87.35 9.09 87.40 9.11C87.46 9.14 87.51 9.17 87.56 9.21C87.60 9.25 87.64 9.28 87.70 9.34L91.55 13.27C91.41 13.27 91.24 13.29 91.07 13.29L90.66 13.29L90.48 13.29C90.30 13.30 90.20 13.38 90.20 13.54L90.20 13.82L92.08 13.82L92.13 13.82L92.30 13.82L92.89 13.82L93.18 13.82L93.18 13.54C93.18 13.38 93.09 13.30 92.90 13.29ZM119.97 3.92L119.90 3.92L119.34 3.92L119.22 3.92L117.82 3.92L117.82 4.19C117.82 4.34 117.92 4.42 118.10 4.44L118.22 4.44C118.27 4.44 118.34 4.45 118.45 4.45C118.57 4.45 118.69 4.47 118.83 4.47L116.24 8.64C116.17 8.75 116.12 8.85 116.07 8.95C116.03 9.04 115.99 9.16 115.95 9.25C115.91 9.16 115.86 9.04 115.82 8.95C115.78 8.85 115.72 8.75 115.65 8.64L113.05 4.47C113.19 4.47 113.32 4.45 113.43 4.45C113.54 4.45 113.62 4.44 113.68 4.44L113.78 4.44C113.96 4.42 114.06 4.34 114.06 4.19L114.06 3.92L112.66 3.92L112.55 3.92L111.99 3.92L111.92 3.92L111.47 3.92L111.47 4.19C111.47 4.34 111.57 4.42 111.75 4.44C111.99 4.45 112.17 4.47 112.27 4.47L115.58 9.73L115.58 13.26C115.42 13.26 115.26 13.27 115.12 13.27C114.98 13.27 114.88 13.29 114.81 13.29L114.69 13.29C114.51 13.30 114.41 13.38 114.41 13.54L114.41 13.82L115.58 13.82L116.30 13.82L117.47 13.82L117.47 13.54C117.47 13.38 117.39 13.30 117.21 13.29L117.07 13.29C117.00 13.29 116.90 13.27 116.76 13.27C116.62 13.27 116.47 13.26 116.30 13.26L116.30 9.73L119.62 4.47C119.73 4.47 119.90 4.45 120.13 4.44C120.32 4.42 120.41 4.34 120.41 4.19L120.41 3.92ZM137.16 8.86C137.16 8.11 137.03 7.41 136.81 6.79C136.58 6.17 136.26 5.64 135.84 5.19C135.42 4.75 134.93 4.40 134.36 4.16C133.78 3.92 133.13 3.79 132.43 3.79C131.73 3.79 131.10 3.92 130.52 4.16C129.95 4.40 129.44 4.75 129.02 5.19C128.60 5.64 128.28 6.17 128.06 6.79C127.83 7.41 127.71 8.11 127.71 8.86C127.71 9.63 127.83 10.33 128.06 10.95C128.28 11.56 128.60 12.10 129.02 12.54C129.44 12.99 129.95 13.33 130.52 13.57C131.10 13.80 131.73 13.93 132.43 13.93C133.13 13.93 133.78 13.80 134.36 13.57C134.93 13.33 135.42 12.99 135.84 12.54C136.26 12.10 136.58 11.56 136.81 10.95C137.03 10.33 137.16 9.63 137.16 8.86ZM136.40 8.86C136.40 9.56 136.32 10.18 136.12 10.72C135.93 11.27 135.66 11.75 135.31 12.12C134.96 12.50 134.54 12.81 134.05 13.01C133.56 13.20 133.03 13.30 132.43 13.30C131.84 13.30 131.31 13.20 130.82 13.01C130.33 12.81 129.91 12.50 129.56 12.12C129.21 11.75 128.93 11.27 128.73 10.72C128.53 10.18 128.45 9.56 128.45 8.86C128.45 8.18 128.53 7.55 128.73 7.00C128.93 6.45 129.21 5.98 129.56 5.60C129.91 5.22 130.33 4.91 130.82 4.72C131.31 4.52 131.84 4.41 132.43 4.41C133.03 4.41 133.56 4.52 134.05 4.72C134.54 4.91 134.96 5.22 135.31 5.60C135.66 5.98 135.93 6.45 136.12 7.00C136.32 7.55 136.40 8.18 136.40 8.86ZM153.40 3.92L152.68 3.92L151.33 3.92L151.33 4.19C151.33 4.34 151.42 4.42 151.61 4.44L151.77 4.44C151.87 4.44 152.01 4.45 152.18 4.45C152.35 4.45 152.52 4.47 152.68 4.47L152.68 10.04C152.68 10.50 152.61 10.92 152.47 11.33C152.33 11.73 152.14 12.08 151.87 12.38C151.61 12.67 151.30 12.89 150.92 13.06C150.54 13.23 150.12 13.31 149.65 13.31C149.17 13.31 148.74 13.23 148.36 13.06C147.98 12.89 147.66 12.66 147.41 12.36C147.14 12.07 146.96 11.72 146.82 11.33C146.68 10.93 146.61 10.50 146.61 10.04L146.61 4.47C146.78 4.47 146.94 4.45 147.11 4.45C147.28 4.45 147.42 4.44 147.52 4.44L147.69 4.44C147.87 4.42 147.97 4.34 147.97 4.19L147.97 3.92L146.61 3.92L145.89 3.92L144.72 3.92L144.72 4.19C144.72 4.34 144.80 4.42 144.98 4.44L145.12 4.44C145.19 4.44 145.29 4.45 145.43 4.45C145.57 4.45 145.73 4.47 145.89 4.47L145.89 10.04C145.89 10.58 145.98 11.09 146.15 11.56C146.31 12.04 146.57 12.46 146.89 12.81C147.21 13.16 147.62 13.44 148.08 13.64C148.54 13.83 149.07 13.93 149.65 13.93C150.22 13.93 150.74 13.83 151.20 13.64C151.66 13.44 152.07 13.16 152.39 12.81C152.71 12.46 152.96 12.04 153.13 11.56C153.30 11.09 153.40 10.58 153.40 10.04L153.40 4.47C153.57 4.47 153.71 4.45 153.85 4.45C153.99 4.45 154.10 4.44 154.17 4.44L154.29 4.44C154.48 4.42 154.57 4.34 154.57 4.19L154.57 3.92ZM170.59 13.29L170.49 13.29L170.31 13.29C170.23 13.29 170.14 13.27 170.06 13.27L167.09 9.53C167.01 9.42 166.89 9.32 166.78 9.25C167.22 9.21 167.61 9.11 167.96 8.96C168.31 8.81 168.59 8.61 168.84 8.37C169.08 8.13 169.27 7.85 169.40 7.55C169.53 7.24 169.60 6.89 169.60 6.51C169.60 5.66 169.32 5.03 168.76 4.58C168.20 4.14 167.34 3.92 166.19 3.92L163.79 3.92L162.61 3.92L162.61 4.19C162.61 4.34 162.69 4.42 162.88 4.44L163.02 4.44C163.09 4.44 163.18 4.45 163.32 4.45C163.46 4.45 163.62 4.47 163.79 4.47L163.79 13.26C163.62 13.26 163.46 13.27 163.32 13.27C163.18 13.27 163.09 13.29 163.02 13.29L162.88 13.29C162.69 13.30 162.60 13.38 162.60 13.54L162.60 13.82L163.79 13.82L164.50 13.82L165.68 13.82L165.68 13.54C165.68 13.38 165.58 13.30 165.40 13.29L165.26 13.29C165.19 13.29 165.09 13.27 164.95 13.27C164.81 13.27 164.67 13.26 164.50 13.26L164.50 9.34L165.68 9.34C165.87 9.34 166.01 9.35 166.10 9.39C166.18 9.44 166.26 9.52 166.35 9.62L169.53 13.64C169.58 13.71 169.62 13.75 169.68 13.78C169.74 13.80 169.81 13.82 169.88 13.82L169.95 13.82L170.49 13.82L170.86 13.82L170.86 13.54C170.86 13.38 170.77 13.30 170.59 13.29ZM166.10 8.81L164.50 8.81L164.50 4.48L166.19 4.48C167.08 4.48 167.75 4.66 168.21 5.00C168.67 5.33 168.90 5.87 168.90 6.57C168.90 6.92 168.84 7.21 168.71 7.49C168.59 7.77 168.39 7.99 168.15 8.19C167.92 8.39 167.62 8.55 167.27 8.65C166.92 8.75 166.53 8.81 166.10 8.81ZM195.66 4.68C195.08 4.17 194.19 3.92 193.03 3.92L190.62 3.92L189.43 3.92L189.43 4.19C189.43 4.34 189.53 4.42 189.71 4.44L189.85 4.44C189.92 4.44 190.02 4.45 190.16 4.45C190.30 4.45 190.46 4.47 190.62 4.47L190.62 13.26C190.46 13.26 190.30 13.27 190.16 13.27C190.02 13.27 189.92 13.29 189.85 13.29L189.71 13.29C189.53 13.30 189.43 13.38 189.43 13.54L189.43 13.82L190.62 13.82L191.34 13.82L192.51 13.82L192.51 13.54C192.51 13.38 192.42 13.30 192.23 13.29L192.11 13.29C192.04 13.29 191.93 13.27 191.79 13.27C191.65 13.27 191.51 13.26 191.34 13.26L191.34 9.83L193.03 9.83C193.58 9.83 194.07 9.74 194.50 9.60C194.94 9.45 195.30 9.25 195.61 8.99C195.92 8.72 196.15 8.41 196.31 8.05C196.48 7.69 196.55 7.29 196.55 6.86C196.55 5.92 196.25 5.18 195.66 4.68ZM195.64 7.81C195.51 8.11 195.33 8.36 195.09 8.57C194.85 8.78 194.56 8.95 194.21 9.07C193.86 9.20 193.47 9.25 193.03 9.25L191.34 9.25L191.34 4.48L193.03 4.48C193.96 4.48 194.66 4.69 195.13 5.10C195.59 5.50 195.83 6.09 195.83 6.85C195.83 7.20 195.76 7.52 195.64 7.81ZM214.00 8.86C214.00 8.11 213.88 7.41 213.65 6.79C213.43 6.17 213.11 5.64 212.69 5.19C212.27 4.75 211.78 4.40 211.20 4.16C210.63 3.92 209.97 3.79 209.27 3.79C208.57 3.79 207.94 3.92 207.37 4.16C206.79 4.40 206.29 4.75 205.87 5.19C205.45 5.64 205.13 6.17 204.90 6.79C204.68 7.41 204.55 8.11 204.55 8.86C204.55 9.63 204.68 10.33 204.90 10.95C205.13 11.56 205.45 12.10 205.87 12.54C206.29 12.99 206.79 13.33 207.37 13.57C207.94 13.80 208.57 13.93 209.27 13.93C209.97 13.93 210.63 13.80 211.20 13.57C211.78 13.33 212.27 12.99 212.69 12.54C213.11 12.10 213.43 11.56 213.65 10.95C213.88 10.33 214.00 9.63 214.00 8.86ZM213.25 8.86C213.25 9.56 213.16 10.18 212.97 10.72C212.77 11.27 212.51 11.75 212.16 12.12C211.81 12.50 211.39 12.81 210.90 13.01C210.41 13.20 209.87 13.30 209.27 13.30C208.68 13.30 208.15 13.20 207.66 13.01C207.17 12.81 206.75 12.50 206.40 12.12C206.05 11.75 205.77 11.27 205.58 10.72C205.38 10.18 205.30 9.56 205.30 8.86C205.30 8.18 205.38 7.55 205.58 7.00C205.77 6.45 206.05 5.98 206.40 5.60C206.75 5.22 207.17 4.91 207.66 4.72C208.15 4.52 208.68 4.41 209.27 4.41C209.87 4.41 210.41 4.52 210.90 4.72C211.39 4.91 211.81 5.22 212.16 5.60C212.51 5.98 212.77 6.45 212.97 7.00C213.16 7.55 213.25 8.18 213.25 8.86ZM229.71 3.92L229.52 3.92L222.22 3.92L222.01 3.92L221.91 3.92L221.91 5.96L222.26 5.96C222.46 5.96 222.54 5.85 222.56 5.63C222.56 5.53 222.59 5.17 222.61 4.52L225.51 4.52L225.51 13.26C225.34 13.26 225.20 13.27 225.06 13.27C224.92 13.27 224.81 13.29 224.74 13.29L224.62 13.29C224.43 13.30 224.34 13.38 224.34 13.54L224.34 13.82L225.51 13.82L226.23 13.82L227.42 13.82L227.42 13.54C227.42 13.38 227.32 13.30 227.14 13.29L227.00 13.29C226.93 13.29 226.83 13.27 226.69 13.27C226.55 13.27 226.39 13.26 226.23 13.26L226.23 4.52L229.11 4.52C229.15 5.24 229.17 5.60 229.17 5.63C229.18 5.85 229.28 5.96 229.47 5.96L229.81 5.96L229.81 3.92ZM239.11 3.92L237.92 3.92L237.92 4.19C237.92 4.34 238.01 4.42 238.20 4.44L238.34 4.44C238.41 4.44 238.50 4.45 238.64 4.45C238.78 4.45 238.94 4.47 239.11 4.47L239.11 13.26C238.94 13.26 238.78 13.27 238.64 13.27C238.50 13.27 238.41 13.29 238.34 13.29L238.20 13.29C238.01 13.30 237.93 13.38 237.93 13.54L237.93 13.82L239.11 13.82L245.04 13.82L245.04 13.22L245.04 11.76L244.69 11.76C244.50 11.76 244.41 11.89 244.40 12.11C244.40 12.14 244.38 12.19 244.38 12.29C244.38 12.39 244.38 12.53 244.37 12.74C244.36 12.95 244.34 13.09 244.34 13.22L239.82 13.22L239.82 9.09L243.77 9.09L243.77 8.51L239.82 8.51L239.82 4.51L244.34 4.51C244.37 5.12 244.40 5.50 244.40 5.63C244.41 5.85 244.50 5.96 244.69 5.96L245.04 5.96L245.04 4.51L245.04 3.92ZM262.46 3.92L261.83 3.92L260.61 3.92L260.61 4.19C260.61 4.34 260.71 4.42 260.89 4.44L261.03 4.44C261.10 4.44 261.21 4.45 261.35 4.45C261.49 4.45 261.66 4.47 261.83 4.47L261.83 12.22C261.83 12.35 261.83 12.49 261.84 12.63L255.43 4.05C255.39 3.99 255.36 3.95 255.32 3.93C255.28 3.92 255.23 3.91 255.16 3.91L254.81 3.91L253.62 3.91L253.62 4.19C253.62 4.34 253.72 4.42 253.90 4.44L254.04 4.44C254.11 4.44 254.21 4.45 254.35 4.45C254.49 4.45 254.65 4.47 254.81 4.47L254.81 13.26C254.65 13.26 254.49 13.27 254.35 13.27C254.21 13.27 254.11 13.29 254.04 13.29L253.90 13.29C253.72 13.30 253.62 13.38 253.62 13.54L253.62 13.82L254.81 13.82L255.43 13.82L256.65 13.82L256.65 13.54C256.65 13.38 256.55 13.30 256.37 13.29L256.23 13.29C256.16 13.29 256.03 13.27 255.89 13.27C255.75 13.27 255.60 13.26 255.43 13.26L255.43 5.49C255.43 5.36 255.43 5.22 255.42 5.08L261.86 13.68C261.93 13.78 262.00 13.82 262.11 13.82L262.46 13.82L262.46 4.47C262.63 4.47 262.77 4.45 262.91 4.45C263.05 4.45 263.16 4.44 263.23 4.44L263.35 4.44C263.54 4.42 263.63 4.34 263.63 4.19L263.63 3.92ZM279.19 3.92L278.99 3.92L271.70 3.92L271.49 3.92L271.39 3.92L271.39 5.96L271.74 5.96C271.94 5.96 272.02 5.85 272.03 5.63C272.03 5.53 272.06 5.17 272.09 4.52L274.99 4.52L274.99 13.26C274.82 13.26 274.68 13.27 274.54 13.27C274.40 13.27 274.29 13.29 274.22 13.29L274.09 13.29C273.91 13.30 273.81 13.38 273.81 13.54L273.81 13.82L274.99 13.82L275.70 13.82L276.89 13.82L276.89 13.54C276.89 13.38 276.79 13.30 276.61 13.29L276.47 13.29C276.40 13.29 276.30 13.27 276.16 13.27C276.02 13.27 275.87 13.26 275.70 13.26L275.70 4.52L278.59 4.52C278.63 5.24 278.64 5.60 278.64 5.63C278.66 5.85 278.75 5.96 278.95 5.96L279.29 5.96L279.29 3.92ZM290.21 4.44C290.39 4.42 290.47 4.34 290.47 4.19L290.47 3.91L289.30 3.91L288.58 3.91L287.39 3.91L287.39 4.19C287.39 4.34 287.49 4.42 287.67 4.44L287.81 4.44C287.88 4.44 287.98 4.45 288.12 4.45C288.26 4.45 288.41 4.47 288.58 4.47L288.58 13.26C288.41 13.26 288.26 13.27 288.12 13.27C287.98 13.27 287.88 13.29 287.81 13.29L287.67 13.29C287.49 13.30 287.39 13.38 287.39 13.54L287.39 13.82L288.58 13.82L289.30 13.82L290.47 13.82L290.47 13.54C290.47 13.38 290.39 13.30 290.21 13.29L290.07 13.29C290.00 13.29 289.90 13.27 289.76 13.27C289.62 13.27 289.46 13.26 289.30 13.26L289.30 4.47C289.46 4.47 289.62 4.45 289.76 4.45C289.90 4.45 290.00 4.44 290.07 4.44ZM308.11 13.22L307.65 13.17L303.87 3.91L303.16 3.91L299.36 13.17L298.91 13.22C298.73 13.23 298.65 13.33 298.65 13.50L298.65 13.82L299.10 13.82L299.39 13.82L299.64 13.82L299.74 13.82L301.06 13.82L301.06 13.50C301.06 13.31 300.94 13.23 300.73 13.22C300.72 13.22 300.69 13.20 300.65 13.20C300.61 13.20 300.55 13.19 300.45 13.19C300.36 13.19 300.23 13.19 300.09 13.17L301.07 10.75L301.14 10.57L305.87 10.57L305.94 10.75L306.92 13.17C306.78 13.19 306.67 13.19 306.57 13.19C306.47 13.19 306.40 13.20 306.36 13.20C306.32 13.20 306.29 13.22 306.28 13.22C306.07 13.23 305.96 13.31 305.96 13.50L305.96 13.82L307.27 13.82L307.37 13.82L307.64 13.82L307.92 13.82L308.38 13.82L308.38 13.50C308.38 13.33 308.29 13.23 308.11 13.22ZM303.31 5.22C303.34 5.14 303.38 5.04 303.41 4.94C303.44 4.84 303.48 4.75 303.51 4.63C303.53 4.75 303.58 4.84 303.60 4.94C303.63 5.04 303.67 5.12 303.70 5.21L305.66 10.04L301.36 10.04ZM322.98 11.97C322.78 11.97 322.70 12.08 322.69 12.31C322.69 12.32 322.69 12.38 322.67 12.43C322.66 12.49 322.66 12.59 322.64 12.71C322.63 12.84 322.62 13.01 322.60 13.20L318.51 13.20L318.51 4.47C318.68 4.47 318.82 4.45 318.96 4.45C319.10 4.45 319.21 4.44 319.28 4.44L319.41 4.44C319.59 4.42 319.69 4.34 319.69 4.19L319.69 3.92L318.51 3.92L317.80 3.92L316.61 3.92L316.61 4.19C316.61 4.34 316.71 4.42 316.89 4.44L317.03 4.44C317.10 4.44 317.20 4.45 317.34 4.45C317.48 4.45 317.63 4.47 317.80 4.47L317.80 13.26C317.63 13.26 317.48 13.27 317.34 13.27C317.20 13.27 317.10 13.29 317.03 13.29L316.89 13.29C316.71 13.30 316.61 13.38 316.61 13.54L316.61 13.82L317.80 13.82L323.08 13.82L323.20 13.82L323.33 13.82L323.33 13.55L323.33 12.99L323.33 11.97L323.05 11.97Z"></path></g></svg>