<?xml version="1.0" standalone="no"?>
<!DOCTYPE svg PUBLIC "-//W3C//DTD SVG 20010904//EN"
 "http://www.w3.org/TR/2001/REC-SVG-20010904/DTD/svg10.dtd">
<svg version="1.0" xmlns="http://www.w3.org/2000/svg"
 width="765.000000pt" height="163.000000pt" viewBox="0 0 765.000000 163.000000"
 preserveAspectRatio="xMidYMid meet">
<metadata>
Created by potrace 1.16, written by Peter Selinger 2001-2019
</metadata>
<g transform="translate(0.000000,163.000000) scale(0.100000,-0.100000)"
fill="#0b03fc" stroke="none">
<path d="M2437 1474 c-4 -4 -7 -279 -7 -611 l0 -603 75 0 75 0 0 289 0 289 32
33 c85 85 235 94 305 18 52 -57 57 -85 61 -366 l4 -263 70 0 69 0 -3 283 c-3
269 -5 285 -27 341 -34 84 -101 150 -177 172 -107 31 -263 0 -315 -62 -12 -15
-15 14 -19 232 l-5 249 -65 3 c-36 2 -69 0 -73 -4z"/>
<path d="M5970 1225 l0 -256 -47 36 c-62 47 -138 69 -222 63 -91 -7 -160 -39
-221 -104 -204 -215 -130 -606 131 -700 102 -36 234 -13 320 56 l37 29 7 -44
6 -45 65 0 64 0 0 610 0 610 -70 0 -70 0 0 -255z m-133 -306 c92 -44 143 -141
143 -270 0 -164 -94 -272 -236 -273 -147 0 -246 135 -231 313 7 79 26 127 69
177 64 72 169 94 255 53z"/>
<path d="M210 826 l0 -566 80 0 80 0 2 198 3 197 170 6 c188 7 228 16 307 74
34 25 55 52 80 102 32 65 33 72 33 183 0 186 -47 276 -177 336 l-63 29 -257 3
-258 3 0 -565z m439 423 c110 -23 161 -92 161 -215 0 -86 -13 -129 -53 -171
-49 -53 -99 -66 -250 -67 l-132 -1 -3 220 c-1 121 0 225 2 232 7 16 202 18
275 2z"/>
<path d="M3340 825 l0 -566 78 3 77 3 3 258 2 257 205 0 205 0 0 70 0 70 -205
0 -205 0 0 170 0 170 265 0 265 0 0 65 0 65 -345 0 -345 0 0 -565z"/>
<path d="M4160 1310 l0 -80 70 0 70 0 0 80 0 80 -70 0 -70 0 0 -80z"/>
<path d="M1983 1253 l-33 -4 0 -100 0 -99 -59 0 -58 0 -7 -37 c-12 -74 -13
-73 59 -73 l65 0 0 -252 c1 -269 7 -324 45 -374 36 -47 82 -64 193 -71 l99 -6
6 33 c4 18 7 45 7 61 0 28 -1 29 -52 29 -84 0 -124 15 -137 52 -7 19 -11 126
-11 279 l0 249 105 0 105 0 0 55 0 55 -105 0 -105 0 0 105 0 105 -42 -2 c-24
0 -58 -3 -75 -5z"/>
<path d="M1275 1056 c-58 -15 -113 -38 -137 -57 -14 -12 -15 -22 -7 -69 l10
-56 62 30 c74 38 181 47 240 23 46 -20 77 -69 77 -123 l0 -41 -90 -12 c-185
-24 -311 -82 -353 -165 -42 -80 -32 -192 24 -259 84 -102 279 -106 391 -8 l43
38 24 -37 c27 -43 73 -66 143 -73 52 -5 53 -4 63 65 l7 45 -36 7 c-22 4 -41
16 -48 29 -9 15 -15 95 -19 242 -5 193 -9 227 -28 277 -28 72 -53 103 -104
130 -52 26 -188 34 -262 14z m253 -489 c3 -108 -10 -131 -100 -176 -72 -36
-128 -40 -175 -11 -45 27 -56 54 -51 118 4 48 10 60 41 88 37 34 77 49 174 63
110 17 108 19 111 -82z"/>
<path d="M4797 1060 c-45 -12 -91 -34 -134 -66 l-31 -24 -7 40 -7 40 -59 0
-59 0 0 -395 0 -395 75 0 75 0 0 293 0 293 34 33 c55 54 175 76 268 51 44 -13
93 -66 107 -117 6 -22 11 -147 11 -295 l0 -258 76 0 76 0 -4 278 c-4 226 -8
287 -21 329 -42 127 -137 195 -281 199 -44 2 -98 -1 -119 -6z"/>
<path d="M6530 1054 c-108 -29 -205 -121 -246 -234 -25 -70 -29 -193 -10 -270
49 -191 197 -300 405 -301 93 -1 114 2 210 33 l63 20 -6 51 c-4 28 -9 54 -11
58 -3 4 -22 1 -44 -7 -22 -7 -70 -18 -108 -24 -199 -32 -346 60 -369 232 l-7
48 289 2 289 3 -1 87 c-1 72 -5 95 -28 142 -70 142 -245 208 -426 160z m220
-136 c47 -24 90 -88 90 -135 l0 -23 -210 0 c-115 0 -210 2 -210 4 0 19 43 96
66 118 66 62 182 77 264 36z"/>
<path d="M7425 1052 c-22 -11 -65 -42 -97 -71 l-56 -51 -7 60 -7 60 -59 0 -59
0 0 -395 0 -395 75 0 75 0 0 281 0 281 30 28 c36 34 108 60 166 60 48 0 51 6
56 105 l2 50 -39 3 c-23 1 -57 -6 -80 -16z"/>
<path d="M4160 655 l0 -395 70 0 70 0 0 395 0 395 -70 0 -70 0 0 -395z"/>
</g>
</svg>
